<svg xmlns="http://www.w3.org/2000/svg" width="316" height="90.767" viewBox="0 0 316 90.767"><defs><style>.a{fill:#bcd250;}.b{fill:#fff;}</style></defs><g transform="translate(0.002)"><path class="a" d="M42.447,0A42.862,42.862,0,0,1,0,42.862L0,75.491A75.512,75.512,0,0,0,74.91,0Z"/><path class="b" d="M228.57,77.691v8.3a5.023,5.023,0,0,1-.6,2.491,4.151,4.151,0,0,1-1.785,1.64,5.957,5.957,0,0,1-2.761.581,5.168,5.168,0,0,1-3.715-1.266,4.67,4.67,0,0,1-1.328-3.487v-8.3h2.076v8.116a3.217,3.217,0,0,0,.747,2.345,3.03,3.03,0,0,0,2.262.747c1.972,0,2.968-1.038,2.968-3.113v-8.1Z"/><path class="b" d="M235.253,89.024a4.878,4.878,0,0,0,1.515-.228v1.557a3.882,3.882,0,0,1-.893.249,6.435,6.435,0,0,1-1.121.1c-1.951,0-2.927-1.038-2.927-3.093V82.382H230.5v-.913l1.411-.768.706-2.076H233.9V80.7h2.719v1.577h-2.761v5.189a1.432,1.432,0,0,0,.374,1.1A1.287,1.287,0,0,0,235.253,89.024Z"/><path class="b" d="M238.574,78.252a1.162,1.162,0,1,1,2.325,0,1.038,1.038,0,0,1-.311.809,1.328,1.328,0,0,1-1.7,0A1.038,1.038,0,0,1,238.574,78.252Zm2.076,12.267h-2.076V80.8h2.076Z"/><path class="b" d="M245.777,90.519H243.7V76.8h2.076Z"/><path class="b" d="M248.6,78.252a1.054,1.054,0,0,1,1.183-1.162,1.162,1.162,0,0,1,.83.291,1.183,1.183,0,0,1,.311.872,1.038,1.038,0,0,1-.311.809,1.079,1.079,0,0,1-.83.311,1.121,1.121,0,0,1-.872-.311,1.038,1.038,0,0,1-.311-.809Zm2.2,12.267h-2.076V80.8H250.8Z"/><path class="b" d="M260.223,90.519h-7.348V89.253l4.9-6.85h-4.546V80.8h6.933v1.453L255.3,88.941h4.94Z"/><path class="b" d="M268.837,90.519h-7.306V89.253l4.919-6.85h-4.608V80.8h6.933v1.453l-4.815,6.684h4.961Z"/><path class="b" d="M277.015,90.519,276.6,89.17h0a3.881,3.881,0,0,1-1.432,1.2,4.151,4.151,0,0,1-1.827.332,3.093,3.093,0,0,1-2.221-.768,2.927,2.927,0,0,1-.809-2.2,2.574,2.574,0,0,1,1.121-2.262,6.476,6.476,0,0,1,3.4-.83H276.5v-.5a2.076,2.076,0,0,0-.436-1.411,1.806,1.806,0,0,0-1.328-.457,4.5,4.5,0,0,0-1.432.228,11.045,11.045,0,0,0-1.391.519l-.664-1.474a7.37,7.37,0,0,1,1.723-.623,7.867,7.867,0,0,1,1.785-.208,4.151,4.151,0,0,1,2.781.81,3.134,3.134,0,0,1,.955,2.532V90.6Zm-3.03-1.391a2.6,2.6,0,0,0,1.806-.643,2.221,2.221,0,0,0,.664-1.744V85.89H275.23a4.359,4.359,0,0,0-2.076.5,1.494,1.494,0,0,0-.664,1.328,1.307,1.307,0,0,0,.394,1.017A1.681,1.681,0,0,0,273.985,89.128Z"/><path class="b" d="M284.985,89.024A4.878,4.878,0,0,0,286.5,88.8v1.557a3.591,3.591,0,0,1-.893.249,6.435,6.435,0,0,1-1.121.1c-1.951,0-2.927-1.038-2.927-3.093V82.382h-1.349v-.913l1.432-.768.706-2.076h1.266V80.7h2.823v1.577h-2.761v5.189a1.432,1.432,0,0,0,.374,1.1A1.287,1.287,0,0,0,284.985,89.024Z"/><path class="b" d="M297.045,85.662a5.189,5.189,0,0,1-1.225,3.695,4.338,4.338,0,0,1-3.383,1.349,4.566,4.566,0,0,1-2.408-.623,3.944,3.944,0,0,1-1.619-1.764,6.019,6.019,0,0,1-.54-2.657,5.251,5.251,0,0,1,1.2-3.695,4.919,4.919,0,0,1,6.746,0,5.251,5.251,0,0,1,1.225,3.695Zm-7.057,0c0,2.242.81,3.342,2.47,3.342s2.47-1.1,2.47-3.342-.83-3.342-2.47-3.342a2.076,2.076,0,0,0-1.889.872,4.3,4.3,0,0,0-.581,2.47Z"/><path class="b" d="M304.351,80.639a6.227,6.227,0,0,1,1.017,0l-.208,1.93a3.155,3.155,0,0,0-.913,0,2.636,2.636,0,0,0-2.076.81,2.864,2.864,0,0,0-.768,2.076v5.065h-2.076V80.8h1.64l.249,1.723h.1a3.84,3.84,0,0,1,1.266-1.37A2.927,2.927,0,0,1,304.351,80.639Z"/><path class="b" d="M311.346,90.705a4.733,4.733,0,0,1-3.529-1.328,5,5,0,0,1-1.287-3.632,5.542,5.542,0,0,1,1.183-3.757,4.6,4.6,0,0,1,6.31-.187,4.546,4.546,0,0,1,1.1,3.217v1.121h-6.455a3.217,3.217,0,0,0,.747,2.076,2.7,2.7,0,0,0,2.076.747,7.7,7.7,0,0,0,1.6-.166,8.053,8.053,0,0,0,1.6-.54v1.681a5.314,5.314,0,0,1-1.536.5,8.78,8.78,0,0,1-1.806.27Zm-.374-8.51a2.076,2.076,0,0,0-1.577.623,3.01,3.01,0,0,0-.706,1.827h4.421a2.636,2.636,0,0,0-.6-1.827,1.91,1.91,0,0,0-1.474-.623Z"/><path class="b" d="M315.6,19.283a22.625,22.625,0,0,0-1.785-5.77A20.2,20.2,0,0,0,307.8,5.978,24.721,24.721,0,0,0,299.2,1.827a39.956,39.956,0,0,0-21.836.394,41.014,41.014,0,0,0-7.7,3.591c-.394.249-.83.5-1.225.768a26.3,26.3,0,0,0-8.988-4.5A37.839,37.839,0,0,0,248.807.56a49.4,49.4,0,0,0-13.969,2.076A38.565,38.565,0,0,0,223.65,7.8a16.958,16.958,0,0,0-4.151,3.964,9.589,9.589,0,0,0-1.557,5.521V57.246a13.907,13.907,0,0,0,.851,5.355,7.472,7.472,0,0,0,2.449,3.238,8.8,8.8,0,0,0,3.9,1.577,30.431,30.431,0,0,0,5.21.394,41.512,41.512,0,0,0,5.895-.394,28.415,28.415,0,0,0,4.151-.789V20.2c.809-.436,1.764-.913,2.906-1.391a10.378,10.378,0,0,1,4.151-.726,9.693,9.693,0,0,1,5.895,1.785,6.642,6.642,0,0,1,2.428,5.75V57.246a13.865,13.865,0,0,0,.872,5.355,7.472,7.472,0,0,0,2.449,3.238,8.7,8.7,0,0,0,3.9,1.577,30.514,30.514,0,0,0,5.231.394,40.746,40.746,0,0,0,5.749-.394,33.539,33.539,0,0,0,4.151-.789V21.711a4.359,4.359,0,0,0,0-.955,12.038,12.038,0,0,1,3.176-1.785,10.835,10.835,0,0,1,3.965-.851,9.527,9.527,0,0,1,6.1,1.785,6.954,6.954,0,0,1,2.242,5.75V57.246a13.907,13.907,0,0,0,.851,5.355,7.638,7.638,0,0,0,2.345,3.238,8.8,8.8,0,0,0,3.9,1.577,30.512,30.512,0,0,0,5.231.394,41.763,41.763,0,0,0,5.895-.394A27.461,27.461,0,0,0,316,66.628V24.908a34.431,34.431,0,0,0-.394-5.625Z"/><path class="b" d="M205.343,3.051A18.245,18.245,0,0,0,195.276.6a50.584,50.584,0,0,0-7.68.6,55.523,55.523,0,0,0-7.389,1.661,54.649,54.649,0,0,0-6.684,2.428,23.558,23.558,0,0,0-5.251,3.113,12.641,12.641,0,0,0-3.217,3.9,11.312,11.312,0,0,0-1.079,5.231V57.246a14.321,14.321,0,0,0,.851,5.355,7.68,7.68,0,0,0,2.47,3.238,8.614,8.614,0,0,0,3.9,1.577,30.431,30.431,0,0,0,5.21.394,41.513,41.513,0,0,0,5.895-.394,28.416,28.416,0,0,0,4.151-.789V21.5a21.837,21.837,0,0,1,4.151-1.37c1.64-.415,3.363-.789,5.21-1.142s3.757-.6,5.687-.789,3.861-.27,5.708-.27A17.851,17.851,0,0,0,208.54,14.7a12.7,12.7,0,0,0,.519-3.632,8.925,8.925,0,0,0-3.715-8.012Z"/><path class="b" d="M148.388,7.348a36.345,36.345,0,0,0-10.108-4.857l-.291-.1A46.245,46.245,0,0,0,124.31.477,47.74,47.74,0,0,0,112.458,1.91c-.623.166-1.245.291-1.868.477A30.118,30.118,0,0,0,99.755,8.3a26.464,26.464,0,0,0-7.14,9.859,34.6,34.6,0,0,0-2.595,14.011,30.806,30.806,0,0,0,.208,4.442,34.019,34.019,0,0,0,2.242,9.735c.27.643.6,1.266.893,1.889a24.908,24.908,0,0,0,14.986,13.388,35.763,35.763,0,0,0,11.312,1.785,33.21,33.21,0,0,0,13.18-2.47v2.076a8.137,8.137,0,0,1-4.151,7.721,19.885,19.885,0,0,1-7.887,2.221c-1.079.1-2.242.145-3.487.145a34.974,34.974,0,0,1-9.984-1.432,45.373,45.373,0,0,1-8.676-3.591,10.731,10.731,0,0,0-2.823,3.508,10.98,10.98,0,0,0-1.266,5.355,11.167,11.167,0,0,0,1.7,6.227,10.876,10.876,0,0,0,3.363,3.238,14.946,14.946,0,0,0,1.868,1.059,45.228,45.228,0,0,0,18.888,3.259,52.556,52.556,0,0,0,13.16-1.6,30.948,30.948,0,0,0,10.731-4.961,24.68,24.68,0,0,0,7.244-8.469,25.967,25.967,0,0,0,2.657-12.1V17.29a10.191,10.191,0,0,0-1.536-5.833,16.605,16.605,0,0,0-4.255-4.11Zm-15.879,17.1V44a13.554,13.554,0,0,1-8.614,2.512,10.98,10.98,0,0,1-8.3-3.363,10.563,10.563,0,0,1-.706-.976,16.937,16.937,0,0,1-2.553-10.088,15.131,15.131,0,0,1,3.259-10.378,12.329,12.329,0,0,1,9.776-3.632,15.837,15.837,0,0,1,4.421.6,13.74,13.74,0,0,1,2.719,1.059Z"/></g></svg>