<svg xmlns="http://www.w3.org/2000/svg" width="172.96" height="49.954" viewBox="0 0 172.96 49.954"><defs><style>.a{fill:#87cdd9;}.b{fill:#fff;}</style></defs><path class="a" d="M0,17.884a23.417,23.417,0,0,1,23.417,23.2H41.263A41.274,41.274,0,0,0,0,.14Z" transform="translate(0 0.024)"/><path class="b" d="M111.79,39.873a2.02,2.02,0,0,1-.726,1.679,3.109,3.109,0,0,1-2.042.59h-.737v2.621H107.15V37.751h2.031a3.018,3.018,0,0,1,1.963.533,1.917,1.917,0,0,1,.647,1.588Zm-3.506,1.3h.613a2.167,2.167,0,0,0,1.293-.306,1.135,1.135,0,0,0,.42-.964,1.055,1.055,0,0,0-.374-.9A1.747,1.747,0,0,0,109.1,38.7H108.3Z" transform="translate(14.416 5.083)"/><path class="b" d="M115.064,39.172a2.667,2.667,0,0,1,.567,0l-.113,1.055a1.827,1.827,0,0,0-.5,0,1.418,1.418,0,0,0-1.135.442,1.554,1.554,0,0,0-.42,1.135v2.78H112.33V39.263h.885l.147.942h0a2.269,2.269,0,0,1,.681-.76,1.7,1.7,0,0,1,1.021-.272Z" transform="translate(15.113 5.273)"/><path class="b" d="M120.851,41.908a2.893,2.893,0,0,1-.658,2.031,2.4,2.4,0,0,1-1.895.715,2.5,2.5,0,0,1-1.316-.34,2.19,2.19,0,0,1-.874-.964,3.165,3.165,0,0,1-.318-1.464,2.848,2.848,0,0,1,.669-2.008,2.371,2.371,0,0,1,1.861-.726,2.269,2.269,0,0,1,1.827.737A2.893,2.893,0,0,1,120.851,41.908Zm-3.857,0c0,1.225.454,1.838,1.35,1.838s1.35-.613,1.35-1.838-.454-1.793-1.4-1.793a1.135,1.135,0,0,0-1.032.465,2.4,2.4,0,0,0-.272,1.327Z" transform="translate(15.578 5.271)"/><path class="b" d="M123.25,44.9a1.849,1.849,0,0,1-1.543-.726,3.188,3.188,0,0,1-.556-2.019,3.245,3.245,0,0,1,.556-2.031,1.872,1.872,0,0,1,1.566-.726,1.838,1.838,0,0,1,1.588.771h.068a6.378,6.378,0,0,1-.079-.908V37.33h1.135V44.8H125.1l-.2-.692h0A1.8,1.8,0,0,1,123.25,44.9Zm.306-.919a1.2,1.2,0,0,0,1.01-.386,2.076,2.076,0,0,0,.329-1.271v-.159a2.4,2.4,0,0,0-.329-1.43,1.2,1.2,0,0,0-1.021-.42,1,1,0,0,0-.908.488,2.428,2.428,0,0,0-.329,1.373,2.269,2.269,0,0,0,.318,1.339,1.021,1.021,0,0,0,.9.488Z" transform="translate(16.298 5.027)"/><path class="b" d="M130.533,44.56l-.159-.692h0a1.52,1.52,0,0,1-.669.579,2.11,2.11,0,0,1-.987.216,1.906,1.906,0,0,1-1.441-.488,1.985,1.985,0,0,1-.477-1.452V39.25h1.135v3.279a1.441,1.441,0,0,0,.25.908.964.964,0,0,0,.783.306,1.271,1.271,0,0,0,1.055-.42,2.4,2.4,0,0,0,.329-1.43V39.25h1.135v5.31Z" transform="translate(17.059 5.285)"/><path class="b" d="M134.308,43.884a2.916,2.916,0,0,0,.817-.125v.851a2.746,2.746,0,0,1-.476.136,3.516,3.516,0,0,1-.613.057c-1.066,0-1.611-.567-1.611-1.69v-2.87h-.715v-.488l.771-.42.386-1.135h.7v1.135h1.509v.908h-1.509V43.09a.783.783,0,0,0,.193.6A.794.794,0,0,0,134.308,43.884Z" transform="translate(17.72 5.144)"/><path class="b" d="M137.748,43.884a3,3,0,0,0,.828-.125v.851a2.744,2.744,0,0,1-.476.136,3.731,3.731,0,0,1-.613.057c-1.135,0-1.611-.567-1.611-1.69v-2.87h-.726v-.488l.783-.42.386-1.135h.692v1.135h1.509v.908h-1.509V43.09a.783.783,0,0,0,.238.556A.771.771,0,0,0,137.748,43.884Z" transform="translate(18.183 5.144)"/><path class="b" d="M143.849,41.908a2.893,2.893,0,0,1-.658,2.031,2.394,2.394,0,0,1-1.895.715,2.5,2.5,0,0,1-1.316-.34,2.269,2.269,0,0,1-.885-.964,3.472,3.472,0,0,1-.295-1.464,2.836,2.836,0,0,1,.658-2.008,2.383,2.383,0,0,1,1.861-.726,2.269,2.269,0,0,1,1.827.737A2.836,2.836,0,0,1,143.849,41.908Zm-3.857,0c0,1.225.454,1.838,1.35,1.838s1.35-.613,1.35-1.838-.454-1.793-1.4-1.793a1.135,1.135,0,0,0-1.032.465,2.4,2.4,0,0,0-.272,1.327Z" transform="translate(18.673 5.271)"/><path class="b" d="M147.094,39.172a2.667,2.667,0,0,1,.567,0l-.113,1.055a1.827,1.827,0,0,0-.5,0,1.418,1.418,0,0,0-1.135.442,1.554,1.554,0,0,0-.42,1.135v2.78H144.36V39.263h.885l.147.942h.057a2.269,2.269,0,0,1,.681-.76,1.668,1.668,0,0,1,.964-.272Z" transform="translate(19.422 5.273)"/><path class="b" d="M150.494,44.65a2.6,2.6,0,0,1-1.94-.726,2.746,2.746,0,0,1-.7-2,3.018,3.018,0,0,1,.647-2.042,2.519,2.519,0,0,1,3.4-.1,2.439,2.439,0,0,1,.613,1.759v.613h-3.54a1.7,1.7,0,0,0,.408,1.135,1.452,1.452,0,0,0,1.135.42,4.13,4.13,0,0,0,.874-.091,4.4,4.4,0,0,0,.874-.295v.919a3.925,3.925,0,0,1-.828.272,4.889,4.889,0,0,1-.942.136ZM150.278,40a1.135,1.135,0,0,0-.862.34,1.645,1.645,0,0,0-.386,1h2.394a1.5,1.5,0,0,0-.318-1,1.135,1.135,0,0,0-.817-.318Z" transform="translate(19.891 5.275)"/><path class="b" d="M158.52,10.279a12.367,12.367,0,0,0-.976-3.154A11.062,11.062,0,0,0,154.254,3a13.921,13.921,0,0,0-4.7-2.269A20.614,20.614,0,0,0,144.168,0a20.161,20.161,0,0,0-6.546.942,21.987,21.987,0,0,0-4.2,1.963c-.227.136-.465.272-.681.42a14.375,14.375,0,0,0-4.958-2.5A20.683,20.683,0,0,0,122,0a27,27,0,0,0-7.635,1.135,21.08,21.08,0,0,0-6.115,2.825,9.269,9.269,0,0,0-2.269,2.167,5.23,5.23,0,0,0-.828,3.109V31.03a7.6,7.6,0,0,0,.465,2.927,4.084,4.084,0,0,0,1.339,1.77,4.9,4.9,0,0,0,2.133.874,17.9,17.9,0,0,0,2.859.216,24.473,24.473,0,0,0,3.211-.216,16.133,16.133,0,0,0,2.269-.442V10.779a16.374,16.374,0,0,1,1.588-.76,5.843,5.843,0,0,1,2.269-.4,5.3,5.3,0,0,1,3.222.976,3.642,3.642,0,0,1,1.327,3.143V31.03a7.579,7.579,0,0,0,.477,2.927,4.175,4.175,0,0,0,1.339,1.77,4.9,4.9,0,0,0,2.133.874,17.9,17.9,0,0,0,2.859.216,24.1,24.1,0,0,0,3.143-.216,20.126,20.126,0,0,0,2.349-.442V11.607a2.384,2.384,0,0,0-.068-.545,6.58,6.58,0,0,1,1.736-.976,5.922,5.922,0,0,1,2.167-.465,5.208,5.208,0,0,1,3.336.976,3.812,3.812,0,0,1,1.225,3.143V31.03a7.6,7.6,0,0,0,.465,2.927,4.175,4.175,0,0,0,1.339,1.77,4.958,4.958,0,0,0,2.133.874,17.9,17.9,0,0,0,2.859.216,24.653,24.653,0,0,0,3.222-.216,16.236,16.236,0,0,0,2.269-.442V13.377A17.649,17.649,0,0,0,158.52,10.279Z" transform="translate(14.146 0.004)"/><path class="b" d="M101.756,1.4a9.973,9.973,0,0,0-5.5-1.339,27.649,27.649,0,0,0-4.2.329,30.927,30.927,0,0,0-4.05.908,30.4,30.4,0,0,0-3.642,1.327,13.138,13.138,0,0,0-2.87,1.7,6.807,6.807,0,0,0-1.759,2.144,6.138,6.138,0,0,0-.624,2.848v21.7a7.579,7.579,0,0,0,.476,2.927,4.084,4.084,0,0,0,1.339,1.77,4.844,4.844,0,0,0,2.133.874,17.9,17.9,0,0,0,2.859.216,24.471,24.471,0,0,0,3.211-.216,16.486,16.486,0,0,0,2.269-.442V11.486a13.716,13.716,0,0,1,2.269-.76c.9-.2,1.849-.42,2.859-.613s2.042-.329,3.1-.431,2.11-.147,3.12-.147a9,9,0,0,0,.715-1.77,6.581,6.581,0,0,0,.295-1.985,4.879,4.879,0,0,0-2-4.379Z" transform="translate(10.643 0.011)"/><path class="b" d="M75.414,3.755a19.866,19.866,0,0,0-5.525-2.621H69.73A25.278,25.278,0,0,0,62.219,0a26.2,26.2,0,0,0-6.478.783c-.34.091-.692.159-1.021.261a16.292,16.292,0,0,0-5.888,3.188,14.613,14.613,0,0,0-3.914,5.389,19.128,19.128,0,0,0-1.407,7.669,16.758,16.758,0,0,0,.113,2.417,18.425,18.425,0,0,0,1.225,5.31c.147.363.318.7.488,1.044a14.5,14.5,0,0,0,3.052,4.277,14.023,14.023,0,0,0,5.139,3.041,19.548,19.548,0,0,0,6.183.976,17.9,17.9,0,0,0,7.238-1.3v1.135a4.447,4.447,0,0,1-2.326,4.2A10.812,10.812,0,0,1,60.313,39.6c-.59,0-1.225.091-1.906.091a18.743,18.743,0,0,1-5.457-.806,24.076,24.076,0,0,1-4.742-1.951,5.865,5.865,0,0,0-1.543,1.917,6.081,6.081,0,0,0,2.042,8.1,8.17,8.17,0,0,0,1.021.579,24.721,24.721,0,0,0,10.347,1.781,28.591,28.591,0,0,0,7.193-.874,16.916,16.916,0,0,0,5.866-2.712,13.388,13.388,0,0,0,3.937-4.629,14.193,14.193,0,0,0,1.452-6.614V9.178A5.559,5.559,0,0,0,77.683,6a8.906,8.906,0,0,0-2.269-2.246Zm-8.657,9.337V23.825A7.386,7.386,0,0,1,62.049,25.2a6,6,0,0,1-4.538-1.838,4.538,4.538,0,0,1-.386-.533,9.247,9.247,0,0,1-1.384-5.5,8.282,8.282,0,0,1,1.77-5.673,6.739,6.739,0,0,1,5.321-1.985,8.657,8.657,0,0,1,2.417.284,7.511,7.511,0,0,1,1.509.533Z" transform="translate(5.853 0.005)"/></svg>