<svg xmlns="http://www.w3.org/2000/svg" width="173.371" height="51.84" viewBox="0 0 173.371 51.84"><defs><style>.a{fill:#f6a24f;}.b{fill:#fff;}</style></defs><path class="a" d="M41.358,23.395A23.482,23.482,0,0,1,17.876.139H0A41.37,41.37,0,0,0,41.358,41.18Z" transform="translate(0 0.02)"/><path class="b" d="M115.222,38.189a1.876,1.876,0,0,0-1.558.705,3.707,3.707,0,0,0,0,3.889,1.9,1.9,0,0,0,1.569.671,4.4,4.4,0,0,0,.876-.091,3.25,3.25,0,0,0,.864-.227v.978a5.049,5.049,0,0,1-1.865.318,3.025,3.025,0,0,1-2.377-.932,3.912,3.912,0,0,1-.83-2.684,4.3,4.3,0,0,1,.4-1.922,2.877,2.877,0,0,1,1.137-1.251,3.491,3.491,0,0,1,1.785-.443,4.344,4.344,0,0,1,1.99.455l-.409.955a5.422,5.422,0,0,0-.751-.3A2.9,2.9,0,0,0,115.222,38.189Z" transform="translate(15.347 5.103)"/><path class="b" d="M122.338,41.462a2.922,2.922,0,0,1-.671,2.036,2.411,2.411,0,0,1-1.865.728,2.49,2.49,0,0,1-1.308-.341,2.274,2.274,0,0,1-.887-.967,3.264,3.264,0,0,1-.307-1.456,2.877,2.877,0,0,1,.66-2.024,2.4,2.4,0,0,1,1.876-.728,2.274,2.274,0,0,1,1.819.751A2.831,2.831,0,0,1,122.338,41.462Zm-3.878,0q0,1.842,1.365,1.842c.9,0,1.342-.614,1.342-1.842s-.443-1.831-1.353-1.831a1.137,1.137,0,0,0-1.035.478A2.445,2.445,0,0,0,118.461,41.462Z" transform="translate(16.088 5.31)"/><path class="b" d="M124.007,44.372H122.87V36.89h1.137Z" transform="translate(16.852 5.061)"/><path class="b" d="M126.417,44.372H125.28V36.89h1.137Z" transform="translate(17.183 5.061)"/><path class="b" d="M130.07,44.223a2.559,2.559,0,0,1-1.945-.728,2.74,2.74,0,0,1-.705-1.99,2.934,2.934,0,0,1,.66-2.047,2.278,2.278,0,0,1,4.026,1.649v.614h-3.548a1.819,1.819,0,0,0,.409,1.137,1.478,1.478,0,0,0,1.137.409,3.662,3.662,0,0,0,.887-.091,4.549,4.549,0,0,0,.864-.3V43.8a2.911,2.911,0,0,1-.841.273A4.128,4.128,0,0,1,130.07,44.223Zm-.2-4.662a1.137,1.137,0,0,0-.876.341,1.751,1.751,0,0,0-.387,1h2.422a1.5,1.5,0,0,0-.318-1,1.137,1.137,0,0,0-.841-.341Z" transform="translate(17.476 5.312)"/><path class="b" d="M134.877,44.226a2.377,2.377,0,0,1-1.842-.705,3.013,3.013,0,0,1-.614-2.024,2.957,2.957,0,0,1,.648-2.058,2.434,2.434,0,0,1,1.9-.728,3.412,3.412,0,0,1,1.524.33l-.341.91a3.252,3.252,0,0,0-1.137-.284c-.921,0-1.376.614-1.376,1.831a2.183,2.183,0,0,0,.341,1.342,1.137,1.137,0,0,0,1.012.455,2.854,2.854,0,0,0,1.421-.375v.989a2.024,2.024,0,0,1-.648.25A3.48,3.48,0,0,1,134.877,44.226Z" transform="translate(18.161 5.31)"/><path class="b" d="M139.044,43.437a2.673,2.673,0,0,0,.83-.125v.853a2.128,2.128,0,0,1-.489.136,3.525,3.525,0,0,1-.614.057c-1.069,0-1.6-.569-1.6-1.694V39.8h-.728v-.5l.773-.421.387-1.137h.705v1.137h1.512v.864H138.3v2.843a.785.785,0,0,0,.2.6.705.705,0,0,0,.534.25Z" transform="translate(18.713 5.177)"/><path class="b" d="M140.33,37.625a.591.591,0,0,1,.171-.455.728.728,0,0,1,.932,0,.591.591,0,0,1,.171.455.637.637,0,1,1-1.274,0Zm1.137,6.732H140.33V39.035h1.137Z" transform="translate(19.247 5.076)"/><path class="b" d="M147.485,44.125h-1.137V40.861a1.467,1.467,0,0,0-.239-.921.967.967,0,0,0-.785-.307,1.308,1.308,0,0,0-1.058.421,2.4,2.4,0,0,0-.33,1.421v2.65H142.8V38.8h.887l.159.705h.057a1.683,1.683,0,0,1,.694-.591,2.274,2.274,0,0,1,.978-.2,1.706,1.706,0,0,1,1.91,1.945Z" transform="translate(19.586 5.308)"/><path class="b" d="M152.887,38.8v.625l-.91.171a1.718,1.718,0,0,1,.2.409,2.013,2.013,0,0,1,.08.523,1.615,1.615,0,0,1-.569,1.3,2.4,2.4,0,0,1-1.558.466,2.888,2.888,0,0,1-.466,0,.648.648,0,0,0-.364.523.284.284,0,0,0,.171.273,1.319,1.319,0,0,0,.625.1h.933a2.024,2.024,0,0,1,1.342.375,1.33,1.33,0,0,1,.455,1.08,1.558,1.558,0,0,1-.751,1.387,3.923,3.923,0,0,1-2.161.489,3,3,0,0,1-1.649-.375,1.251,1.251,0,0,1-.58-1.137,1.137,1.137,0,0,1,.307-.819,1.706,1.706,0,0,1,.876-.466.978.978,0,0,1-.375-.307.773.773,0,0,1-.148-.455.819.819,0,0,1,.171-.512,1.706,1.706,0,0,1,.5-.4,1.569,1.569,0,0,1-.671-.58,1.751,1.751,0,0,1-.262-.944,1.683,1.683,0,0,1,.546-1.342,2.274,2.274,0,0,1,1.558-.478h.853ZM148.7,44.954a.637.637,0,0,0,.33.569,1.854,1.854,0,0,0,.921.193,2.832,2.832,0,0,0,1.376-.262.8.8,0,0,0,.455-.705.512.512,0,0,0-.25-.489,1.9,1.9,0,0,0-.921-.148h-.853a1.137,1.137,0,0,0-.773.227A.728.728,0,0,0,148.7,44.954Zm.489-4.424a1.137,1.137,0,0,0,.25.773,1.012,1.012,0,0,0,.739.262c.66,0,.989-.341.989-1.046a1.137,1.137,0,0,0-.25-.8.91.91,0,0,0-.739-.284.955.955,0,0,0-.739.273,1.194,1.194,0,0,0-.262.819Z" transform="translate(20.256 5.31)"/><path class="b" d="M158.641,10.3a12.508,12.508,0,0,0-.978-3.161A11.178,11.178,0,0,0,154.366,3,13.726,13.726,0,0,0,149.658.728a21.89,21.89,0,0,0-11.963.216,22.471,22.471,0,0,0-4.219,1.967c-.227.136-.455.273-.671.421a14.7,14.7,0,0,0-4.969-2.5,20.742,20.742,0,0,0-5.8-.83,26.587,26.587,0,0,0-7.642,1.137,21.117,21.117,0,0,0-6.129,2.82,9.313,9.313,0,0,0-2.274,2.183,5.22,5.22,0,0,0-.83,3.116V31.1a7.619,7.619,0,0,0,.466,2.934,4.094,4.094,0,0,0,1.342,1.774,4.912,4.912,0,0,0,2.138.876,17.944,17.944,0,0,0,2.866.216,24.667,24.667,0,0,0,3.218-.216,16.171,16.171,0,0,0,2.274-.443V10.8c.443-.239.967-.5,1.592-.762a5.856,5.856,0,0,1,2.274-.4,5.311,5.311,0,0,1,3.23.978,3.65,3.65,0,0,1,1.342,3.15V31.1a7.619,7.619,0,0,0,.466,2.934,4.185,4.185,0,0,0,1.342,1.774,4.969,4.969,0,0,0,2.138.876,17.945,17.945,0,0,0,2.866.216,24.154,24.154,0,0,0,3.15-.216,20.172,20.172,0,0,0,2.354-.443V11.633a2.468,2.468,0,0,0-.068-.546,6.6,6.6,0,0,1,1.74-.978,5.936,5.936,0,0,1,2.172-.466,5.163,5.163,0,0,1,3.332.978,3.764,3.764,0,0,1,1.239,3.15V31.1a7.846,7.846,0,0,0,.466,2.934,4.184,4.184,0,0,0,1.342,1.774,4.969,4.969,0,0,0,2.138.876,17.944,17.944,0,0,0,2.866.216,25.017,25.017,0,0,0,3.229-.216,16.273,16.273,0,0,0,2.274-.443V13.407a17.8,17.8,0,0,0-.307-3.1Z" transform="translate(14.422 0.001)"/><path class="b" d="M101.8,1.4a9.893,9.893,0,0,0-5.5-1.342,27.451,27.451,0,0,0-4.2.33,30.7,30.7,0,0,0-4.071.91,29.452,29.452,0,0,0-3.662,1.342,12.793,12.793,0,0,0-2.854,1.694,7.039,7.039,0,0,0-1.785,2.149,6.186,6.186,0,0,0-.6,2.854V31.095a7.619,7.619,0,0,0,.466,2.934A4.014,4.014,0,0,0,80.929,35.8a4.913,4.913,0,0,0,2.138.876,17.944,17.944,0,0,0,2.866.216,24.666,24.666,0,0,0,3.218-.216,16.523,16.523,0,0,0,2.274-.443V11.524a11.928,11.928,0,0,1,2.274-.762c.9-.216,1.854-.432,2.854-.614s2.058-.341,3.127-.443,2.092-.148,3.116-.148a9.208,9.208,0,0,0,.728-1.763,7.459,7.459,0,0,0,.284-2A4.89,4.89,0,0,0,101.8,1.4Z" transform="translate(10.851 0.008)"/><path class="b" d="M75.492,3.775a19.457,19.457,0,0,0-5.538-2.638h-.159A24.915,24.915,0,0,0,62.266,0a26.257,26.257,0,0,0-6.493.785c-.341.091-.694.171-1.012.273a16.273,16.273,0,0,0-5.947,3.184,14.59,14.59,0,0,0-3.912,5.4,18.957,18.957,0,0,0-1.421,7.676,16.877,16.877,0,0,0,.114,2.434,18.467,18.467,0,0,0,1.228,5.322c.159.364.33.705.489,1.046a14.351,14.351,0,0,0,3.07,4.287,13.907,13.907,0,0,0,5.14,3.048,19.65,19.65,0,0,0,6.2.978,17.944,17.944,0,0,0,7.255-1.308v1.137A4.469,4.469,0,0,1,64.7,38.47a10.951,10.951,0,0,1-4.333,1.217c-.591,0-1.228.08-1.91.08a18.774,18.774,0,0,1-5.47-.8,24.131,24.131,0,0,1-4.753-1.956,6.163,6.163,0,0,0,.5,10.041,6.959,6.959,0,0,0,1.035.58,24.71,24.71,0,0,0,10.359,1.774,28.736,28.736,0,0,0,7.21-.864,16.955,16.955,0,0,0,5.879-2.718,13.3,13.3,0,0,0,3.946-4.64,14.226,14.226,0,0,0,1.456-6.63V9.211a5.606,5.606,0,0,0-.841-3.2,8.54,8.54,0,0,0-2.286-2.24Zm-8.676,9.359V23.88A7.426,7.426,0,0,1,62.1,25.256a6.016,6.016,0,0,1-4.549-1.842,5.788,5.788,0,0,1-.387-.534,9.279,9.279,0,0,1-1.4-5.527,8.29,8.29,0,0,1,1.785-5.686,6.755,6.755,0,0,1,5.333-1.99,8.676,8.676,0,0,1,2.422.284,7.528,7.528,0,0,1,1.512.546Z" transform="translate(5.963 0.001)"/></svg>