<svg xmlns="http://www.w3.org/2000/svg" width="316" height="90.914" viewBox="0 0 316 90.914"><defs><style>.a{fill:#e978ac;}.b{fill:#fff;}</style></defs><g transform="translate(0 0.009)"><path class="a" d="M32.67,76.021A43.184,43.184,0,0,1,75.415,32.858V0A76.042,76.042,0,0,0,0,76.021Z"/><path class="b" d="M268.656,90.674l-1.3-3.6h-4.933l-1.275,3.6h-2.237l4.849-12.98h2.3l4.828,12.98ZM266.8,85.26l-1.212-3.512a7.712,7.712,0,0,0-.355-1.108c-.146-.5-.272-.878-.334-1.129a16.3,16.3,0,0,1-.69,2.383l-1.171,3.365Z"/><path class="b" d="M277.352,80.724a4.7,4.7,0,0,1,1.024,0l-.188,1.944a3.512,3.512,0,0,0-.941-.1,2.634,2.634,0,0,0-2.09.815,2.884,2.884,0,0,0-.773,2.09v5.1h-2.09V80.892h1.63l.272,1.735h.1a3.867,3.867,0,0,1,1.275-1.38A2.947,2.947,0,0,1,277.352,80.724Z"/><path class="b" d="M283.831,89.169a5.518,5.518,0,0,0,1.526-.23v1.568a3.7,3.7,0,0,1-.878.251,6.876,6.876,0,0,1-1.129,0c-1.986,0-2.968-1.045-2.968-3.114V82.48h-1.338v-.962l1.442-.773.711-2.09h1.275v2.09h2.78v1.589h-2.78v5.455a1.442,1.442,0,0,0,.376,1.108A1.317,1.317,0,0,0,283.831,89.169Z"/><path class="b" d="M287.2,78.3a1.15,1.15,0,0,1,.293-.857,1.275,1.275,0,0,1,.878-.293,1.15,1.15,0,1,1,0,2.3,1.275,1.275,0,0,1-.878-.293,1.149,1.149,0,0,1-.293-.857Zm2.09,12.374H287.2V80.892h2.09Z"/><path class="b" d="M298.9,87.894a2.508,2.508,0,0,1-1.045,2.195,4.849,4.849,0,0,1-2.989.773,7.023,7.023,0,0,1-3.135-.606V88.479a7.9,7.9,0,0,0,3.219.794c1.275,0,1.923-.4,1.923-1.171a.836.836,0,0,0-.23-.606,2.55,2.55,0,0,0-.69-.523,13.546,13.546,0,0,0-1.359-.606,6.271,6.271,0,0,1-2.278-1.3,2.445,2.445,0,0,1-.606-1.714,2.195,2.195,0,0,1,1.024-1.944,4.808,4.808,0,0,1,2.759-.69,7.943,7.943,0,0,1,3.261.69l-.669,1.568a7.232,7.232,0,0,0-2.675-.648q-1.63,0-1.63.941a.92.92,0,0,0,.418.773,10.3,10.3,0,0,0,1.881.878,9.8,9.8,0,0,1,1.756.857,2.329,2.329,0,0,1,1.066,2.111Z"/><path class="b" d="M304.817,89.169a5.518,5.518,0,0,0,1.526-.23v1.568a3.616,3.616,0,0,1-.9.251,6.479,6.479,0,0,1-1.129,0c-1.965,0-2.947-1.045-2.947-3.114V82.48h-1.338v-.962l1.442-.773.69-2.09h1.3v2.09h2.78v1.589h-2.78v5.455a1.442,1.442,0,0,0,.376,1.108,1.3,1.3,0,0,0,.982.272Z"/><path class="b" d="M314.411,90.674l-.418-1.359h0a4.034,4.034,0,0,1-1.421,1.212,4.181,4.181,0,0,1-1.839.334,3.219,3.219,0,0,1-2.257-.773,2.926,2.926,0,0,1-.815-2.216,2.592,2.592,0,0,1,1.066-2.174,6.271,6.271,0,0,1,3.428-.836h1.672v-.523a1.965,1.965,0,0,0-.418-1.4,1.86,1.86,0,0,0-1.359-.46,4.724,4.724,0,0,0-1.442.23,9.346,9.346,0,0,0-1.338.523l-.669-1.484a6.9,6.9,0,0,1,1.735-.648,8.047,8.047,0,0,1,1.8-.209,4.285,4.285,0,0,1,2.822.815,3.219,3.219,0,0,1,.941,2.55v6.584Zm-3.094-1.4a2.508,2.508,0,0,0,1.818-.648,2.278,2.278,0,0,0,.69-1.777v-.836h-1.254a4.452,4.452,0,0,0-2.09.5,1.484,1.484,0,0,0-.648,1.338,1.3,1.3,0,0,0,.376,1,1.61,1.61,0,0,0,1.108.418Z"/><path class="b" d="M315.436,18.937a22.992,22.992,0,0,0-1.8-5.811,20.192,20.192,0,0,0-6.083-7.588,24.707,24.707,0,0,0-8.654-4.18A36.892,36.892,0,0,0,288.994,0a37.268,37.268,0,0,0-12.081,1.735,41.116,41.116,0,0,0-7.734,3.616l-1.254.773a26.651,26.651,0,0,0-9.134-4.6A38.648,38.648,0,0,0,248.068,0a48.87,48.87,0,0,0-13.963,2.09,37.791,37.791,0,0,0-11.266,5.184,17.621,17.621,0,0,0-4.18,4.013,9.7,9.7,0,0,0-1.526,5.727V57.168a13.963,13.963,0,0,0,.878,5.393,7.65,7.65,0,0,0,2.446,3.261,8.863,8.863,0,0,0,3.93,1.589,30.747,30.747,0,0,0,5.267.418,42,42,0,0,0,5.936-.418,28.616,28.616,0,0,0,4.18-.794V19.857a30.166,30.166,0,0,1,2.926-1.4,10.7,10.7,0,0,1,4.18-.732,9.782,9.782,0,0,1,5.915,1.8,6.668,6.668,0,0,1,2.466,5.79V57.168a13.962,13.962,0,0,0,.878,5.393,7.525,7.525,0,0,0,2.466,3.261,8.758,8.758,0,0,0,3.93,1.589,30.5,30.5,0,0,0,5.246.418,41.345,41.345,0,0,0,5.811-.418,33.778,33.778,0,0,0,4.327-.794V21.383a4.389,4.389,0,0,0-.125-1,12.123,12.123,0,0,1,3.2-1.8,10.827,10.827,0,0,1,3.992-.857,9.615,9.615,0,0,1,6.124,1.8,6.96,6.96,0,0,1,2.257,5.79V57.168a13.964,13.964,0,0,0,.878,5.393,7.525,7.525,0,0,0,2.466,3.261,8.758,8.758,0,0,0,3.93,1.589,30.581,30.581,0,0,0,5.267.418,41.962,41.962,0,0,0,5.924-.419A27.507,27.507,0,0,0,316,66.615V24.644a34.866,34.866,0,0,0-.564-5.706Z"/><path class="b" d="M206.765,2.592A18.248,18.248,0,0,0,196.648.125a50.73,50.73,0,0,0-7.734.606A56.979,56.979,0,0,0,181.452,2.4a52.945,52.945,0,0,0-6.731,2.466,23.244,23.244,0,0,0-5.267,3.135,12.333,12.333,0,0,0-3.261,3.93,11.308,11.308,0,0,0-1.066,5.246V57.168a14.422,14.422,0,0,0,.857,5.393,7.692,7.692,0,0,0,2.466,3.261A8.862,8.862,0,0,0,172.4,67.41a30.5,30.5,0,0,0,5.246.418,42.255,42.255,0,0,0,5.946-.419,28.617,28.617,0,0,0,4.171-.793V21.174a23.871,23.871,0,0,1,4.18-1.38c1.651-.4,3.407-.794,5.267-1.129s3.783-.627,5.727-.815,3.867-.272,5.727-.272A15.7,15.7,0,0,0,210,14.339a13.065,13.065,0,0,0,.543-3.679,8.967,8.967,0,0,0-3.783-8.068Z"/><path class="b" d="M149.43,6.919A36.872,36.872,0,0,0,139.251,2.09h-.293A46.716,46.716,0,0,0,125.163,0a48.368,48.368,0,0,0-11.935,1.442l-1.86.481A30.162,30.162,0,0,0,100.456,7.8a26.859,26.859,0,0,0-7.211,9.929,35.2,35.2,0,0,0-2.592,14.109,31.024,31.024,0,0,0,.209,4.473,33.945,33.945,0,0,0,2.257,9.782c.272.69.585,1.3.9,1.923a26.337,26.337,0,0,0,5.623,7.88,25.835,25.835,0,0,0,9.469,5.6,36.015,36.015,0,0,0,11.392,1.8,33.255,33.255,0,0,0,13.273-2.4v2.09a8.215,8.215,0,0,1-4.18,7.734,19.92,19.92,0,0,1-7.943,2.237c-1.108,0-2.278.167-3.512.167a34.426,34.426,0,0,1-10.054-1.484,44.355,44.355,0,0,1-8.737-3.6,11.12,11.12,0,0,0-2.864,3.532,12.4,12.4,0,0,0,.439,11.684,11.538,11.538,0,0,0,3.407,3.282,12.541,12.541,0,0,0,1.881,1.066,45.588,45.588,0,0,0,19.021,3.261,52.925,52.925,0,0,0,13.252-1.589,30.872,30.872,0,0,0,10.786-5,24.5,24.5,0,0,0,7.316-8.528,26.128,26.128,0,0,0,2.655-12.186V16.931a10.263,10.263,0,0,0-1.526-5.874,16.722,16.722,0,0,0-4.285-4.139ZM133.419,24.142V43.895a13.545,13.545,0,0,1-8.654,2.529,11.1,11.1,0,0,1-8.361-3.386c-.251-.293-.46-.669-.69-.982A17.015,17.015,0,0,1,113.144,31.9,15.238,15.238,0,0,1,116.4,21.446a12.541,12.541,0,0,1,9.8-3.658,16.116,16.116,0,0,1,4.473.523,14.36,14.36,0,0,1,2.717,1.066Z"/></g></svg>