<svg xmlns="http://www.w3.org/2000/svg" width="150.514" height="60.088" viewBox="0 0 150.514 60.088"><defs><style>.a{fill:#333;}.b{fill:#f5a14f;}.c{fill:#e878ac;}.d{fill:#85ccd7;}.e{fill:#bbd14f;}.f{fill:#000100;}</style></defs><g transform="translate(0 0)"><g transform="translate(85.142)"><path class="a" d="M663.586,365.721a21.159,21.159,0,0,1,1.941-.926,7.009,7.009,0,0,1,2.731-.485,6.459,6.459,0,0,1,3.92,1.19,4.425,4.425,0,0,1,1.631,3.833v.6a41.9,41.9,0,0,0,9.29-13.8c-.279.169-.563.334-.83.513a17.45,17.45,0,0,0-6.037-3.04,25.307,25.307,0,0,0-7.091-1.013,32.446,32.446,0,0,0-9.3,1.322,25.379,25.379,0,0,0-7.445,3.436,11.38,11.38,0,0,0-2.773,2.643,6.352,6.352,0,0,0-1.014,3.787v18.006a41.553,41.553,0,0,0,14.974-4.443Z" transform="translate(-648.612 -352.593)"/><path class="a" d="M704.694,391.8a9.283,9.283,0,0,0,.574,3.568,5.084,5.084,0,0,0,1.627,2.159,5.952,5.952,0,0,0,2.6,1.059,20.787,20.787,0,0,0,3.479.263,28.47,28.47,0,0,0,3.92-.263,20.47,20.47,0,0,0,2.777-.53V370.306a21.9,21.9,0,0,0-.312-3.777,73.706,73.706,0,0,1-14.666,24.264Z" transform="translate(-654.299 -354.006)"/><path class="b" d="M649.183,396.751a5.067,5.067,0,0,0,1.631,2.159,5.932,5.932,0,0,0,2.6,1.059,20.824,20.824,0,0,0,3.481.263,28.529,28.529,0,0,0,3.922-.263,20.389,20.389,0,0,0,2.771-.53v-19.3a41.553,41.553,0,0,1-14.974,4.443v8.6A9.322,9.322,0,0,0,649.183,396.751Z" transform="translate(-648.612 -355.386)"/><path class="c" d="M711.322,356.248a16.755,16.755,0,0,0-5.727-2.774,24.762,24.762,0,0,0-6.563-.882,24.491,24.491,0,0,0-7.974,1.146,26.513,26.513,0,0,0-5.115,2.394,41.894,41.894,0,0,1-9.29,13.8v20.46a9.267,9.267,0,0,0,.574,3.568,5.046,5.046,0,0,0,1.63,2.159,5.928,5.928,0,0,0,2.6,1.059,20.814,20.814,0,0,0,3.48.263,27.882,27.882,0,0,0,3.831-.263,24.8,24.8,0,0,0,2.863-.53V366.734a2.871,2.871,0,0,0-.086-.661,7.657,7.657,0,0,1,2.114-1.19,7.069,7.069,0,0,1,2.643-.572,6.345,6.345,0,0,1,4.053,1.19,4.607,4.607,0,0,1,1.5,3.833v20.047a73.7,73.7,0,0,0,14.666-24.264,14.809,14.809,0,0,0-1.186-3.844A13.441,13.441,0,0,0,711.322,356.248Z" transform="translate(-651.455 -352.593)"/></g><g transform="translate(49.205 0.089)"><path class="a" d="M608.62,393.188a9.287,9.287,0,0,0,.573,3.568,5.061,5.061,0,0,0,1.63,2.159,5.931,5.931,0,0,0,2.6,1.058,20.789,20.789,0,0,0,3.479.263,28.526,28.526,0,0,0,3.922-.263,20.5,20.5,0,0,0,2.773-.53V380.192a73.441,73.441,0,0,1-14.976,7.548Z" transform="translate(-608.62 -355.481)"/><path class="d" d="M626.371,365.688q1.632-.4,3.482-.75t3.788-.528q1.937-.175,3.789-.177a11.043,11.043,0,0,0,.881-2.157,8.568,8.568,0,0,0,.353-2.424q0-3.7-2.468-5.329a12.025,12.025,0,0,0-6.7-1.629,33.325,33.325,0,0,0-5.111.4,37.65,37.65,0,0,0-4.933,1.1,36.014,36.014,0,0,0-4.45,1.628,15.564,15.564,0,0,0-3.48,2.071,8.212,8.212,0,0,0-2.16,2.6,7.561,7.561,0,0,0-.746,3.479v20.984A73.448,73.448,0,0,0,623.6,377.4v-10.79A15.147,15.147,0,0,1,626.371,365.688Z" transform="translate(-608.62 -352.692)"/></g><path class="a" d="M583.124,396.338a5.425,5.425,0,0,1-2.819,5.111,13.25,13.25,0,0,1-5.259,1.48,73.779,73.779,0,0,1-14.134,8.963,10.5,10.5,0,0,0,1.244.7q4.577,2.158,12.6,2.159a35.04,35.04,0,0,0,8.767-1.057,20.472,20.472,0,0,0,7.135-3.3,16.221,16.221,0,0,0,4.8-5.639,17.255,17.255,0,0,0,1.763-8.061V373.022a73.714,73.714,0,0,1-14.1,22.335Z" transform="translate(-554.577 -354.665)"/><path class="a" d="M568.8,353.655c-.413.107-.833.2-1.235.324a19.919,19.919,0,0,0-7.224,3.875,17.807,17.807,0,0,0-4.758,6.564,23.338,23.338,0,0,0-1.72,9.34c0,1.027.048,2.008.136,2.956A41.85,41.85,0,0,0,568.8,353.655Z" transform="translate(-553.862 -352.701)"/><path class="e" d="M572.351,406.045a22.965,22.965,0,0,1-6.652-.971,29.686,29.686,0,0,1-5.77-2.377,7.016,7.016,0,0,0-1.892,2.334,7.322,7.322,0,0,0-.84,3.568,7.038,7.038,0,0,0,3.339,6.3,73.78,73.78,0,0,0,14.134-8.962C573.938,406.007,573.167,406.045,572.351,406.045Z" transform="translate(-554.2 -357.674)"/><path class="e" d="M595.51,359.9a10.739,10.739,0,0,0-2.777-2.729,23.942,23.942,0,0,0-6.727-3.239c-.066-.019-.124-.044-.189-.065a30.522,30.522,0,0,0-9.119-1.279,31.887,31.887,0,0,0-7.885.954,41.849,41.849,0,0,1-14.8,23.06,22.207,22.207,0,0,0,1.5,6.471c.182.441.387.847.589,1.262a17.5,17.5,0,0,0,3.729,5.214,16.868,16.868,0,0,0,6.253,3.7,23.734,23.734,0,0,0,7.534,1.187,21.893,21.893,0,0,0,8.811-1.584v.427a73.714,73.714,0,0,0,14.1-22.335v-7.169A6.812,6.812,0,0,0,595.51,359.9Zm-13.348,8.648V381.58a8.979,8.979,0,0,1-5.728,1.674,7.3,7.3,0,0,1-5.508-2.247,6.022,6.022,0,0,1-.468-.644c-1.1-1.52-1.69-3.727-1.69-6.712s.718-5.3,2.158-6.917,3.6-2.423,6.477-2.423a10.555,10.555,0,0,1,2.95.354,9.015,9.015,0,0,1,1.808.7Z" transform="translate(-553.877 -352.593)"/><path class="f" d="M610.712,413.711h1.161v1.439a4.208,4.208,0,0,1-.943.115,1.689,1.689,0,0,1-1.352-.538,2.286,2.286,0,0,1-.476-1.558,2.16,2.16,0,0,1,.526-1.542,1.805,1.805,0,0,1,1.419-.569,3.2,3.2,0,0,1,1.362.32l.327-.769a4.108,4.108,0,0,0-1.666-.332,2.917,2.917,0,0,0-2.149.765,2.846,2.846,0,0,0-.782,2.12,3.022,3.022,0,0,0,.7,2.124,2.529,2.529,0,0,0,1.968.751,6.285,6.285,0,0,0,1.982-.294v-2.817h-2.072Z" transform="translate(-559.366 -358.443)"/><rect class="f" width="0.908" height="5.97" transform="translate(54.663 51.55)"/><path class="f" d="M618.879,411.8a1.934,1.934,0,0,0-1.5.575,2.335,2.335,0,0,0-.529,1.622,2.641,2.641,0,0,0,.246,1.164,1.767,1.767,0,0,0,.7.767,2.051,2.051,0,0,0,1.05.265,1.939,1.939,0,0,0,1.494-.579,2.347,2.347,0,0,0,.527-1.617,2.284,2.284,0,0,0-.54-1.6A1.839,1.839,0,0,0,618.879,411.8Zm-.006,3.658c-.728,0-1.09-.482-1.09-1.461a1.929,1.929,0,0,1,.253-1.085.919.919,0,0,1,.817-.376q1.089,0,1.091,1.46C619.943,414.973,619.581,415.455,618.873,415.455Z" transform="translate(-560.25 -358.597)"/><path class="f" d="M624.645,411.611a1.419,1.419,0,0,0-1.267.631h-.036c0-.056.01-.187.017-.388s.019-.365.019-.474v-1.42h-.9v5.97h.679l.164-.5h.059a1.642,1.642,0,0,0,2.5,0,2.619,2.619,0,0,0,.454-1.618,2.58,2.58,0,0,0-.454-1.622A1.453,1.453,0,0,0,624.645,411.611Zm.514,3.278a.83.83,0,0,1-.731.38.906.906,0,0,1-.8-.343,1.96,1.96,0,0,1-.247-1.118v-.066a1.833,1.833,0,0,1,.251-1.076.922.922,0,0,1,.777-.319c.664,0,1,.487,1,1.442A2.085,2.085,0,0,1,625.159,414.889Z" transform="translate(-560.82 -358.41)"/><path class="f" d="M629.561,411.8a3.644,3.644,0,0,0-.779.087,3.329,3.329,0,0,0-.755.281l.293.64c.186-.08.377-.154.574-.219a2.071,2.071,0,0,1,.622-.1.764.764,0,0,1,.591.2.878.878,0,0,1,.192.609v.227l-.732.022a2.935,2.935,0,0,0-1.486.361,1.145,1.145,0,0,0-.488.991,1.272,1.272,0,0,0,.357.959,1.319,1.319,0,0,0,.978.334,1.831,1.831,0,0,0,.792-.138,1.745,1.745,0,0,0,.622-.522h.026l.181.586h.644v-2.856a1.373,1.373,0,0,0-.411-1.106A1.832,1.832,0,0,0,629.561,411.8Zm.732,2.66a1.01,1.01,0,0,1-.3.775,1.12,1.12,0,0,1-.792.269.748.748,0,0,1-.505-.147.565.565,0,0,1-.171-.439.664.664,0,0,1,.29-.589,1.824,1.824,0,0,1,.926-.2l.547-.031Z" transform="translate(-561.339 -358.597)"/><rect class="f" width="0.908" height="5.97" transform="translate(71.113 51.55)"/><path class="f" d="M641.532,412a1.452,1.452,0,0,0-.524-1.229,2.561,2.561,0,0,0-1.608-.41h-1.588v5.607h.918v-2.239h.909l1.342,2.239h1.05l-1.592-2.48A1.535,1.535,0,0,0,641.532,412Zm-2.156.966h-.645v-1.836h.608a1.694,1.694,0,0,1,.935.213.758.758,0,0,1,.321.684.852.852,0,0,1-.293.7A1.4,1.4,0,0,1,639.377,412.969Z" transform="translate(-562.375 -358.451)"/><rect class="f" width="0.898" height="4.247" transform="translate(80.371 53.273)"/><path class="f" d="M643.751,410.074a.506.506,0,0,0-.375.128.6.6,0,0,0,0,.735.5.5,0,0,0,.375.133.493.493,0,0,0,.372-.133.583.583,0,0,0,0-.735A.5.5,0,0,0,643.751,410.074Z" transform="translate(-562.927 -358.422)"/><path class="f" d="M647.5,411.819a3.289,3.289,0,0,0-.379-.023,1.819,1.819,0,0,0-1.238.38,1.332,1.332,0,0,0-.442,1.065,1.412,1.412,0,0,0,.211.76,1.135,1.135,0,0,0,.535.455,1.528,1.528,0,0,0-.4.331.625.625,0,0,0-.132.4.673.673,0,0,0,.419.6,1.345,1.345,0,0,0-.7.374.96.96,0,0,0-.244.658,1,1,0,0,0,.456.874,2.373,2.373,0,0,0,1.324.308,3.109,3.109,0,0,0,1.717-.391,1.262,1.262,0,0,0,.595-1.123,1.05,1.05,0,0,0-.366-.858,1.645,1.645,0,0,0-1.059-.292h-.74a1.164,1.164,0,0,1-.508-.081.226.226,0,0,1-.132-.214.509.509,0,0,1,.29-.423,2.35,2.35,0,0,0,.37.026,1.883,1.883,0,0,0,1.242-.374,1.275,1.275,0,0,0,.46-1.036,1.285,1.285,0,0,0-.233-.745l.725-.129v-.5H647.8C647.728,411.855,647.626,411.843,647.5,411.819Zm-.726,4.283h.683a1.584,1.584,0,0,1,.733.118.421.421,0,0,1,.2.392.632.632,0,0,1-.357.555,2.125,2.125,0,0,1-1.094.219,1.433,1.433,0,0,1-.742-.164.489.489,0,0,1-.268-.444.613.613,0,0,1,.231-.493A.961.961,0,0,1,646.773,416.1Zm.34-2.027a.794.794,0,0,1-.591-.21.863.863,0,0,1-.2-.624.912.912,0,0,1,.2-.643.775.775,0,0,1,.595-.227.74.74,0,0,1,.583.228.933.933,0,0,1,.194.635C647.89,413.792,647.631,414.076,647.112,414.076Z" transform="translate(-563.117 -358.597)"/><path class="f" d="M652.8,411.611a1.614,1.614,0,0,0-.762.17,1.146,1.146,0,0,0-.515.472h-.064a6.4,6.4,0,0,0,.052-.775V409.96H650.6v5.97h.907v-2.1a1.979,1.979,0,0,1,.261-1.145,1.044,1.044,0,0,1,.838-.333.762.762,0,0,1,.629.242,1.16,1.16,0,0,1,.205.735v2.606h.9v-2.766A1.368,1.368,0,0,0,652.8,411.611Z" transform="translate(-563.672 -358.41)"/><path class="f" d="M657.249,415.212a.691.691,0,0,1-.158-.485v-2.271H658.3v-.684h-1.209v-.939h-.554l-.3.893-.622.334v.4h.58v2.285c0,.9.422,1.352,1.281,1.352a3.228,3.228,0,0,0,.491-.037,1.611,1.611,0,0,0,.377-.112v-.678a2.244,2.244,0,0,1-.647.105A.625.625,0,0,1,657.249,415.212Z" transform="translate(-564.18 -358.499)"/><path class="f" d="M661.949,413.994a3.318,3.318,0,0,0-.769-.369,4.113,4.113,0,0,1-.808-.389.388.388,0,0,1-.182-.333c0-.276.235-.41.714-.41a3.2,3.2,0,0,1,1.158.287l.283-.677a3.42,3.42,0,0,0-1.413-.306,2.063,2.063,0,0,0-1.192.3.956.956,0,0,0-.439.848,1.089,1.089,0,0,0,.256.737,2.8,2.8,0,0,0,.993.565,5.429,5.429,0,0,1,.589.26,1.174,1.174,0,0,1,.307.229.424.424,0,0,1,.091.261c0,.328-.285.5-.846.5a3.415,3.415,0,0,1-1.388-.338v.775a3.068,3.068,0,0,0,1.364.253,2.161,2.161,0,0,0,1.3-.328,1.1,1.1,0,0,0,.451-.949,1.037,1.037,0,0,0-.12-.533A1.1,1.1,0,0,0,661.949,413.994Z" transform="translate(-564.555 -358.597)"/><path class="f" d="M669.112,414.828h-.03l-1.556-4.464h-1.292v5.607h.834v-2.725c0-.611-.024-1.267-.064-1.96h.024l1.626,4.684h.815l1.685-4.681h.033c-.016.1-.03.369-.038.814s-.022.819-.022,1.094v2.773h.885v-5.607h-1.3Z" transform="translate(-565.257 -358.451)"/><path class="f" d="M675.834,411.8a3.715,3.715,0,0,0-.779.087,3.408,3.408,0,0,0-.755.281l.288.64c.187-.08.384-.154.582-.219a2.075,2.075,0,0,1,.62-.1.788.788,0,0,1,.6.2.9.9,0,0,1,.186.609v.227l-.735.022a2.914,2.914,0,0,0-1.481.361,1.112,1.112,0,0,0-.484.991,1.314,1.314,0,0,0,.339.959,1.344,1.344,0,0,0,.981.334,1.8,1.8,0,0,0,.794-.138,1.565,1.565,0,0,0,.617-.522h.038l.178.586h.642v-2.856a1.36,1.36,0,0,0-.405-1.106A1.835,1.835,0,0,0,675.834,411.8Zm.731,2.66a.993.993,0,0,1-.3.775,1.112,1.112,0,0,1-.788.269.743.743,0,0,1-.5-.147.55.55,0,0,1-.174-.439.644.644,0,0,1,.291-.589,1.818,1.818,0,0,1,.927-.2l.543-.031Z" transform="translate(-566.032 -358.597)"/><path class="f" d="M681.484,411.8a1.788,1.788,0,0,0-.784.168,1.185,1.185,0,0,0-.549.463H680.1l-.128-.558h-.7v4.247h.9V414a1.876,1.876,0,0,1,.271-1.138,1,1,0,0,1,.83-.333.78.78,0,0,1,.634.242,1.152,1.152,0,0,1,.2.735v2.606h.909v-2.766A1.364,1.364,0,0,0,681.484,411.8Z" transform="translate(-566.58 -358.597)"/><path class="f" d="M686.458,411.8a3.51,3.51,0,0,0-.772.087,3.242,3.242,0,0,0-.762.281l.3.64c.182-.08.375-.154.571-.219a2.124,2.124,0,0,1,.625-.1.77.77,0,0,1,.591.2.873.873,0,0,1,.19.609v.227l-.733.022a2.928,2.928,0,0,0-1.486.361,1.142,1.142,0,0,0-.488.991,1.27,1.27,0,0,0,.355.959,1.332,1.332,0,0,0,.978.334,1.836,1.836,0,0,0,.8-.138,1.792,1.792,0,0,0,.618-.522h.024l.182.586h.653v-2.856a1.381,1.381,0,0,0-.417-1.106A1.816,1.816,0,0,0,686.458,411.8Zm.733,2.66a1,1,0,0,1-.3.775,1.1,1.1,0,0,1-.791.269.763.763,0,0,1-.507-.147.57.57,0,0,1-.174-.439.665.665,0,0,1,.3-.589,1.814,1.814,0,0,1,.923-.2l.551-.031Z" transform="translate(-567.109 -358.597)"/><path class="f" d="M691.654,411.819a3.229,3.229,0,0,0-.375-.023,1.858,1.858,0,0,0-1.248.38,1.354,1.354,0,0,0-.441,1.065,1.339,1.339,0,0,0,.216.76,1.164,1.164,0,0,0,.526.455,1.49,1.49,0,0,0-.391.331.57.57,0,0,0-.134.4.551.551,0,0,0,.121.358.663.663,0,0,0,.285.245,1.37,1.37,0,0,0-.69.374.931.931,0,0,0-.248.658.987.987,0,0,0,.465.874,2.337,2.337,0,0,0,1.316.308,3.156,3.156,0,0,0,1.723-.391,1.267,1.267,0,0,0,.6-1.123,1.048,1.048,0,0,0-.366-.858,1.67,1.67,0,0,0-1.061-.292h-.74a1.15,1.15,0,0,1-.511-.081.238.238,0,0,1-.136-.214.512.512,0,0,1,.3-.423,2.3,2.3,0,0,0,.372.026,1.925,1.925,0,0,0,1.245-.374,1.286,1.286,0,0,0,.454-1.036,1.249,1.249,0,0,0-.07-.407,1.155,1.155,0,0,0-.164-.338l.731-.129v-.5h-1.473C691.877,411.855,691.787,411.843,691.654,411.819Zm-.725,4.283h.68a1.6,1.6,0,0,1,.736.118.413.413,0,0,1,.2.392.625.625,0,0,1-.367.555,2.044,2.044,0,0,1-1.085.219,1.374,1.374,0,0,1-.741-.164.494.494,0,0,1-.272-.444.592.592,0,0,1,.235-.493A.957.957,0,0,1,690.929,416.1Zm.333-2.027a.786.786,0,0,1-.586-.21.9.9,0,0,1-.2-.624.934.934,0,0,1,.2-.643.88.88,0,0,1,1.182,0,.936.936,0,0,1,.191.635C692.048,413.792,691.787,414.076,691.262,414.076Z" transform="translate(-567.594 -358.597)"/><path class="f" d="M696.424,411.8a1.758,1.758,0,0,0-1.419.6,2.346,2.346,0,0,0-.524,1.627,2.222,2.222,0,0,0,.557,1.593,2.081,2.081,0,0,0,1.55.572,3.8,3.8,0,0,0,.768-.065,2.277,2.277,0,0,0,.672-.216v-.732a3.714,3.714,0,0,1-.692.234,3.639,3.639,0,0,1-.709.069,1.133,1.133,0,0,1-.88-.335,1.392,1.392,0,0,1-.34-.946h2.828v-.49a1.955,1.955,0,0,0-.485-1.4A1.75,1.75,0,0,0,696.424,411.8Zm-1,1.748a1.264,1.264,0,0,1,.308-.8.916.916,0,0,1,.687-.27.868.868,0,0,1,.677.266,1.177,1.177,0,0,1,.253.8Z" transform="translate(-568.122 -358.597)"/><path class="f" d="M704.6,411.8a1.669,1.669,0,0,0-.78.176,1.286,1.286,0,0,0-.526.492h-.067a1.294,1.294,0,0,0-1.29-.669,1.585,1.585,0,0,0-.739.168,1.12,1.12,0,0,0-.52.463h-.041l-.127-.558H699.8v4.247h.906V414a2.007,2.007,0,0,1,.244-1.138.891.891,0,0,1,.758-.333.7.7,0,0,1,.588.239,1.225,1.225,0,0,1,.183.73v2.614h.9v-2.244a1.7,1.7,0,0,1,.247-1.012.908.908,0,0,1,.775-.327.685.685,0,0,1,.573.239,1.224,1.224,0,0,1,.182.73v2.614h.907v-2.766a1.689,1.689,0,0,0-.355-1.173A1.421,1.421,0,0,0,704.6,411.8Z" transform="translate(-568.661 -358.597)"/><path class="f" d="M709.824,411.8a1.765,1.765,0,0,0-1.422.6,2.366,2.366,0,0,0-.522,1.627,2.21,2.21,0,0,0,.558,1.593,2.085,2.085,0,0,0,1.552.572,3.733,3.733,0,0,0,.766-.065,2.282,2.282,0,0,0,.673-.216v-.732a3.818,3.818,0,0,1-.691.234,3.614,3.614,0,0,1-.7.069,1.129,1.129,0,0,1-.883-.335,1.378,1.378,0,0,1-.34-.946h2.824v-.49a1.95,1.95,0,0,0-.485-1.4A1.745,1.745,0,0,0,709.824,411.8Zm-.99,1.748a1.276,1.276,0,0,1,.3-.8.935.935,0,0,1,.686-.27.861.861,0,0,1,.679.266,1.205,1.205,0,0,1,.254.8Z" transform="translate(-569.481 -358.597)"/><path class="f" d="M715.41,411.8a1.8,1.8,0,0,0-.784.168,1.223,1.223,0,0,0-.545.463h-.04l-.123-.558H713.2v4.247h.908V414a1.888,1.888,0,0,1,.262-1.138,1.009,1.009,0,0,1,.836-.333.759.759,0,0,1,.627.242,1.136,1.136,0,0,1,.2.735v2.606h.91v-2.766A1.363,1.363,0,0,0,715.41,411.8Z" transform="translate(-570.02 -358.597)"/><path class="f" d="M719.856,415.212a.63.63,0,0,1-.163-.485v-2.271H720.9v-.684h-1.209v-.939h-.561l-.307.893-.622.334v.4h.59v2.285c0,.9.421,1.352,1.281,1.352a3.331,3.331,0,0,0,.488-.037,2.018,2.018,0,0,0,.386-.112v-.678a2.4,2.4,0,0,1-.667.105A.574.574,0,0,1,719.856,415.212Z" transform="translate(-570.527 -358.499)"/></g></svg>